<svg xmlns="http://www.w3.org/2000/svg" viewBox="0 0 512 512" id="cosmetic"><path fill="#4093cc" d="m370.488 27-23.6 386.67h-216.79l-21.6-353.71-2.01-32.96z"></path><path fill="#4aa2ea" d="m312.718 121.41-16.5 270.28a57.974 57.974 0 0 1-5.78 21.98h-160.34l-21.6-353.71c1.92-.19 3.87-.29 5.85-.29h140.29c33.53 0 60.13 28.26 58.08 61.74z"></path><path fill="#5cb1e0" d="M386.992 16.5c0 4.56-1.85 8.68-4.83 11.67a16.478 16.478 0 0 1-11.67 4.83h-264c-9.11 0-16.5-7.39-16.5-16.5 0-4.56 1.85-8.68 4.83-11.67 2.99-2.98 7.11-4.83 11.67-4.83h264c9.11 0 16.5 7.39 16.5 16.5z"></path><path fill="#73c3f9" d="M320.322 16.5c0 4.56-1.85 8.68-4.83 11.67a16.46 16.46 0 0 1-11.67 4.83h-197.33c-9.11 0-16.5-7.39-16.5-16.5 0-4.56 1.85-8.68 4.83-11.67 2.99-2.98 7.11-4.83 11.67-4.83h197.33c9.12 0 16.5 7.39 16.5 16.5z"></path><path fill="#5eb0dd" d="M349.542 398.67v95.91c0 9.62-7.8 17.42-17.42 17.42h-187.13c-9.62 0-17.41-7.8-17.41-17.42v-95.91h221.96z"></path><path fill="#73c3f9" d="M300.042 398.67v95.91c0 9.62-7.8 17.42-17.42 17.42h-137.63c-9.62 0-17.41-7.8-17.41-17.42v-95.91h172.46z"></path><path fill="#4aa2ea" d="M127.578 464.33h221.96v16h-221.96z"></path><circle cx="238.492" cy="224.333" r="96.667" fill="#60aded"></circle><path fill="#ff4155" d="M155.252 129.49v159.18h-79.5V172.12c.74-11.33 9.44-26.19 23.63-38.51 20.1-17.45 43.61-23.19 52.51-12.82 2.01 2.34 3.1 5.31 3.36 8.7z"></path><path fill="#d5ddef" d="M167.002 291.75V355h-103v-63.25c0-5.11 4.14-9.25 9.25-9.25h84.5c5.11 0 9.25 4.14 9.25 9.25z"></path><path fill="#eab234" d="M188.832 332.67V512H42.172V332.67c0-4.51 3.65-8.17 8.16-8.17h130.34c4.51 0 8.16 3.66 8.16 8.17z"></path><path fill="#e8c73d" d="M188.832 332.67v54.83H42.172v-54.83c0-4.51 3.65-8.17 8.16-8.17h130.34c4.51 0 8.16 3.66 8.16 8.17z"></path><path fill="#e9efff" d="M126.332 291.75V355h-84.16v-22.33c0-4.51 3.65-8.17 8.16-8.17h13.67v-32.75c0-5.11 4.14-9.25 9.25-9.25h43.83c5.11 0 9.25 4.14 9.25 9.25z"></path><path fill="#ffc839" d="M148.172 332.67V512h-106V332.67c0-4.51 3.65-8.17 8.16-8.17h89.67c4.51 0 8.17 3.66 8.17 8.17z"></path><path fill="#ffdd40" d="M148.172 332.67v54.83h-106v-54.83c0-4.51 3.65-8.17 8.16-8.17h89.67c4.51 0 8.17 3.66 8.17 8.17z"></path><path fill="#ff7186" d="M155.252 132.65c-.74 11.33-9.44 26.19-23.63 38.51-20.1 17.45-43.61 23.19-52.51 12.82-2.01-2.34-3.1-5.31-3.36-8.7-.08-1.02-.08-2.07 0-3.16.74-11.33 9.44-26.19 23.63-38.51 20.1-17.45 43.61-23.19 52.51-12.82 2.01 2.34 3.1 5.31 3.36 8.7.08 1.02.08 2.07 0 3.16z"></path><path fill="#e27dbc" d="M468.788 413.94c-12.12 65.15-74.77 108.14-139.93 96.01-46.99-8.75-82.46-43.78-94.02-87.07-4.47-16.74-5.37-34.7-1.99-52.86 12.13-65.16 149.94-149.76 149.94-149.76s27.19 35.61 51.17 78.84c21.59 38.9 40.58 83.98 34.83 114.84z"></path><path fill="#fc90ce" d="M448.128 371.94c-12.13 65.15-74.78 108.14-139.94 96.01-30.39-5.66-55.95-22.31-73.35-45.07-4.47-16.74-5.37-34.7-1.99-52.86 12.13-65.16 149.94-149.76 149.94-149.76s27.19 35.61 51.17 78.84c11.15 26.56 17.92 52.72 14.17 72.84z"></path><g fill="#fff"><path d="M57.797 460.75v-87.167a7.5 7.5 0 0 1 15 0v87.167a7.5 7.5 0 0 1-15 0z"></path><circle cx="65.297" cy="490.333" r="7.917"></circle></g></svg>