<svg xmlns="http://www.w3.org/2000/svg" width="48" height="48" id="swastik"><g fill-rule="evenodd" transform="translate(-823.493 -1544.87)"><circle cx="847.493" cy="1568.869" r="24" fill="#ef4c45"></circle><path style="line-height:normal;text-indent:0;text-align:start;text-decoration-line:none;text-decoration-style:solid;text-decoration-color:#000;text-transform:none;block-progression:tb;isolation:auto;mix-blend-mode:normal" fill="#fff" d="M834.869 1556.48c-.501.13-.501.84 0 .97a2.479 2.479 0 0 1 1.875 2.41v9.501l.008-.084a2.004 2.004 0 0 0 .572 1.762l.006.01c.004 0 .009.01.013.014.007.01.015.014.022.02h.002a2.002 2.002 0 0 0 1.691.525l-.08.01h6.766v5h-7.75c-1.93 0-3.5 1.57-3.5 3.5v1.5c0 .317.052.609.121.875.129.501.84.501.969 0a2.479 2.479 0 0 1 2.41-1.875h9.744a2.01 2.01 0 0 0 2-2.322l.006.08v-6.758h5v7.75c0 1.93 1.57 3.5 3.5 3.5h1.5c.316 0 .61-.052.877-.12.501-.13.5-.842-.002-.97a2.479 2.479 0 0 1-1.875-2.41v-9.504l-.006.082a2 2 0 0 0-.652-1.826 1.999 1.999 0 0 0-1.371-.521h-.006c-.068 0-.135.012-.202.02h-6.763v-5h7.75c1.93 0 3.5-1.57 3.5-3.5v-1.5c0-.317-.053-.607-.121-.873-.129-.502-.84-.502-.97 0a2.477 2.477 0 0 1-2.41 1.873h-9.505l.082.01a2.007 2.007 0 0 0-1.703.528 2.001 2.001 0 0 0-.615 1.784l-.008-.08v6.76h-5v-7.75c0-1.93-1.57-3.5-3.5-3.5h-1.024c-.49-.032-.934.046-1.351.11zm1.597.88h.778c1.393 0 2.5 1.106 2.5 2.5v8.25a.5.5 0 0 0 .5.5h6a.5.5 0 0 0 .5-.5v-7.26a.52.52 0 0 0-.006-.08.999.999 0 0 1 .308-.895l.008-.01a1 1 0 0 1 .852-.265c.027.01.054.01.082.01h9.506c1.044 0 1.861-.55 2.5-1.278v.778c0 1.393-1.107 2.5-2.5 2.5h-8.25a.5.5 0 0 0-.5.5v6a.5.5 0 0 0 .5.5h7.265c.028 0 .055 0 .082-.01a.786.786 0 0 1 .137-.014c.255 0 .501.09.69.261l.005.01a1 1 0 0 1 .329.916.447.447 0 0 0-.008.082v9.504c0 1.045.551 1.862 1.279 2.5h-.78a2.484 2.484 0 0 1-2.5-2.5v-8.25a.5.5 0 0 0-.5-.5h-6a.5.5 0 0 0-.5.5v7.258c.001.027.003.054.008.08a.99.99 0 0 1-1 1.162h-9.758c-1.043 0-1.86.55-2.5 1.278v-.778c0-1.393 1.107-2.5 2.5-2.5h8.25a.5.5 0 0 0 .5-.5v-6a.5.5 0 0 0-.5-.5h-7.265c-.026 0-.053 0-.078.01a.998.998 0 0 1-.846-.261l-.008-.01h-.002l-.014-.014-.01-.01a1 1 0 0 1-.285-.881.447.447 0 0 0 .008-.082v-9.502c0-1.045-.55-1.862-1.277-2.5zm6.778 5.75c-1.1 0-2 .9-2 2 0 1.098.9 2 2 2 1.098 0 2-.902 2-2 0-1.1-.902-2-2-2zm9 0c-1.1 0-2 .9-2 2 0 1.098.9 2 2 2 1.098 0 2-.902 2-2 0-1.1-.902-2-2-2zm-9 1c.558 0 1 .441 1 1 0 .558-.442 1-1 1-.559 0-1-.442-1-1 0-.559.441-1 1-1zm9 0c.558 0 1 .441 1 1 0 .558-.442 1-1 1-.559 0-1-.442-1-1 0-.559.441-1 1-1zm-9 8c-1.1 0-2 .9-2 2 0 1.098.9 2 2 2 1.098 0 2-.902 2-2 0-1.1-.902-2-2-2zm9 0c-1.1 0-2 .9-2 2 0 1.098.9 2 2 2 1.098 0 2-.902 2-2 0-1.1-.902-2-2-2zm-9 1c.558 0 1 .441 1 1 0 .558-.442 1-1 1-.559 0-1-.442-1-1 0-.559.441-1 1-1zm9 0c.558 0 1 .441 1 1 0 .558-.442 1-1 1-.559 0-1-.442-1-1 0-.559.441-1 1-1z" color="#000" font-family="sans-serif" font-weight="400" overflow="visible"></path></g></svg>