<svg xmlns="http://www.w3.org/2000/svg" data-name="Layer 4" viewBox="0 0 64 64" id="stationary"><path fill="#fff" d="M52.5,12V49l-.57,2h-2.86l-.57-2V12c0-1.1,.9-2,2-2,1.36,0,2,1.15,2,2Z"></path><path fill="#6d6e71" d="M51.93,51.5h-2.86c-.22,0-.42-.15-.48-.36l-.57-2s-.02-.09-.02-.14V12c0-1.38,1.12-2.5,2.5-2.5,1.69,0,2.5,1.48,2.5,2.5V49s0,.09-.02,.14l-.57,2c-.06,.21-.26,.36-.48,.36Zm-2.48-1h2.11l.45-1.57V12c0-.75-.58-1.5-1.5-1.5-.83,0-1.5,.67-1.5,1.5V48.93l.45,1.57Zm3.05-1.5h0Z"></path><polygon fill="#ff4130" points="18.5 56.5 16.5 55.5 14.5 56.5 14.5 50.5 18.5 50.5 18.5 56.5"></polygon><path fill="#631913" d="M18.5,57c-.08,0-.15-.02-.22-.05l-1.78-.89-1.78,.89c-.16,.08-.34,.07-.49-.02-.15-.09-.24-.25-.24-.43v-6c0-.28,.22-.5,.5-.5h4c.28,0,.5,.22,.5,.5v6c0,.17-.09,.33-.24,.43-.08,.05-.17,.07-.26,.07Zm-2-2c.08,0,.15,.02,.22,.05l1.28,.64v-4.69h-3v4.69l1.28-.64c.07-.04,.15-.05,.22-.05Z"></path><rect width="6" height="3" x="47.5" y="13" fill="#4980f0"></rect><polygon fill="#4980f0" points="52.5 49 51.93 51 50.5 56 49.07 51 48.5 49 52.5 49"></polygon><path fill="#ffa74f" d="M11.29,11.5h27.5c.95,0,1.71,.77,1.71,1.71V49.79c0,.95-.77,1.71-1.71,1.71H11.29c-1.54,0-2.79-1.25-2.79-2.79V14.29c0-1.54,1.25-2.79,2.79-2.79Z"></path><rect width="4" height="40" x="12.5" y="11.5" fill="#ff4130"></rect><rect width="14" height="8" x="21.5" y="18.5" fill="#fff"></rect><path fill="#6d6e71" d="M35.5,18h-14c-.28,0-.5,.22-.5,.5v8c0,.28,.22,.5,.5,.5h14c.28,0,.5-.22,.5-.5v-8c0-.28-.22-.5-.5-.5Zm-.5,8h-13v-7h13v7Z"></path><path fill="#5c5437" d="M33.5 29h-10c-.28 0-.5.22-.5.5s.22.5.5.5h10c.28 0 .5-.22.5-.5s-.22-.5-.5-.5zM32.5 31h-8c-.28 0-.5.22-.5.5s.22.5.5.5h8c.28 0 .5-.22.5-.5s-.22-.5-.5-.5z"></path><path fill="#2f384a" d="M54.5,12.5c-.28,0-.5,.22-.5,.5,0-.28-.22-.5-.5-.5h-6c-.28,0-.5,.22-.5,.5v3c0,.28,.22,.5,.5,.5h6c.28,0,.5-.22,.5-.5v7c0,.28,.22,.5,.5,.5s.5-.22,.5-.5V13c0-.28-.22-.5-.5-.5Zm-1.5,3h-5v-2h5v2Z"></path><path fill="#6d6e71" d="M51.58,50.39l-.03,.11h-2.1l-.03-.11h-.33v1.11h2.82v-1.11h-.33Z"></path><path fill="#2f384a" d="M52.9,48.7c-.1-.13-.24-.2-.4-.2h-4c-.32,0-.58,.33-.48,.64,.37,1.32,1.58,5.55,1.98,6.93,.04,.44-.21,1.42,.5,1.43,.71,0,.46-.99,.5-1.43,.4-1.41,1.6-5.59,1.98-6.93,.04-.15,.01-.32-.08-.44Zm-2.4,5.48c-.36-1.24-.99-3.46-1.34-4.68h2.68c-.35,1.21-.98,3.45-1.34,4.68Z"></path><path fill="#631913" d="M16.5,52h-4c-.28,0-.5-.22-.5-.5V11.5c0-.28,.22-.5,.5-.5h4c.28,0,.5,.22,.5,.5V51.5c0,.28-.22,.5-.5,.5Zm-3.5-1h3V12h-3V51Z"></path><path fill="#5c5437" d="M38.79,52H11.29c-1.81,0-3.29-1.47-3.29-3.29V14.29c0-1.81,1.47-3.29,3.29-3.29h27.5c1.22,0,2.21,.99,2.21,2.21V49.79c0,1.22-.99,2.21-2.21,2.21ZM11.29,12c-1.26,0-2.29,1.03-2.29,2.29V48.71c0,1.26,1.03,2.29,2.29,2.29h27.5c.67,0,1.21-.54,1.21-1.21V13.21c0-.67-.54-1.21-1.21-1.21H11.29Z"></path></svg>