<svg xmlns="http://www.w3.org/2000/svg" xmlns:xlink="http://www.w3.org/1999/xlink" width="48" height="48" id="swastik"><defs><linearGradient id="b" x1="1056.035" x2="1031.176" y1="544.13" y2="517.701" gradientTransform="translate(-758.244 751.85) scale(1.53785)" gradientUnits="userSpaceOnUse" xlink:href="#a"></linearGradient><linearGradient id="a"><stop offset="0" stop-color="#5a5a5a"></stop><stop offset="1" stop-color="#656e85"></stop></linearGradient></defs><g transform="translate(-823.493 -1544.87)"><rect width="48" height="48" x="823.493" y="1544.869" fill="url(#b)" rx="10.144" ry="10.144"></rect><path style="line-height:normal;text-indent:0;text-align:start;text-decoration-line:none;text-decoration-style:solid;text-decoration-color:#000;text-transform:none;block-progression:tb;isolation:auto;mix-blend-mode:normal" fill="#fff" fill-rule="evenodd" d="M834.869 1555.732c-.501.128-.501.84 0 .969a2.479 2.479 0 0 1 1.875 2.41v9.502l.008-.084a2.004 2.004 0 0 0 .572 1.761l.006.01c.004 0 .009.01.014.014.007.01.014.013.021.02h.002a2.002 2.002 0 0 0 1.692.525l-.08.01h6.765v5h-7.75c-1.93 0-3.5 1.57-3.5 3.5v1.5c0 .316.052.608.121.875.129.5.84.5.969 0a2.479 2.479 0 0 1 2.41-1.875h9.744a2.01 2.01 0 0 0 2-2.322l.006.08v-6.758h5v7.75c0 1.93 1.57 3.5 3.5 3.5h1.5c.316 0 .61-.052.877-.121.501-.13.5-.842-.002-.97a2.479 2.479 0 0 1-1.875-2.41v-9.503l-.006.082a2 2 0 0 0-.652-1.826 1.999 1.999 0 0 0-1.371-.522h-.006c-.068 0-.135.012-.201.02h-6.764v-5h7.75c1.93 0 3.5-1.57 3.5-3.5v-1.5c0-.316-.053-.606-.121-.873-.129-.5-.84-.5-.969 0a2.477 2.477 0 0 1-2.41 1.873h-9.506l.082.01a2.007 2.007 0 0 0-1.703.528 2.001 2.001 0 0 0-.615 1.785l-.008-.08v6.76h-5v-7.75c0-1.93-1.57-3.5-3.5-3.5h-1.5c-.235-.014-.62.072-.875.111zm1.597.879h.778c1.393 0 2.5 1.106 2.5 2.5v8.25a.5.5 0 0 0 .5.5h6a.5.5 0 0 0 .5-.5v-7.26a.504.504 0 0 0-.006-.08.998.998 0 0 1 .308-.894l.008-.01a1 1 0 0 1 .852-.266c.027.01.054.01.082.01h9.506c1.044 0 1.861-.55 2.5-1.277v.777c0 1.394-1.107 2.5-2.5 2.5h-8.25a.5.5 0 0 0-.5.5v6a.5.5 0 0 0 .5.5h7.265c.028 0 .055 0 .082-.01a.786.786 0 0 1 .137-.014c.255 0 .501.09.69.262l.005.01a1 1 0 0 1 .329.916.57.57 0 0 0-.008.082v9.504c0 1.044.551 1.861 1.279 2.5h-.78a2.484 2.484 0 0 1-2.5-2.5v-8.25a.5.5 0 0 0-.5-.5h-6a.5.5 0 0 0-.5.5v7.258c.001.027.004.054.009.08a.99.99 0 0 1-1 1.162h-9.758c-1.044 0-1.862.55-2.5 1.277v-.777c0-1.394 1.106-2.5 2.5-2.5h8.25a.5.5 0 0 0 .5-.5v-6a.5.5 0 0 0-.5-.5h-7.266c-.026 0-.052 0-.078.01a.998.998 0 0 1-.846-.262l-.008-.01h-.002l-.014-.014-.01-.01a.999.999 0 0 1-.285-.88.556.556 0 0 0 .008-.083v-9.502c0-1.044-.55-1.861-1.277-2.5zm6.778 5.75c-1.099 0-2 .901-2 2 0 1.098.901 2 2 2 1.098 0 2-.902 2-2 0-1.099-.902-2-2-2zm9 0c-1.099 0-2 .901-2 2 0 1.098.901 2 2 2 1.098 0 2-.902 2-2 0-1.099-.902-2-2-2zm-9 1c.558 0 1 .441 1 1 0 .558-.442 1-1 1-.559 0-1-.442-1-1 0-.559.441-1 1-1zm9 0c.558 0 1 .441 1 1 0 .558-.442 1-1 1-.559 0-1-.442-1-1 0-.559.441-1 1-1zm-9 8c-1.099 0-2 .901-2 2 0 1.098.901 2 2 2 1.098 0 2-.902 2-2 0-1.099-.902-2-2-2zm9 0c-1.099 0-2 .901-2 2 0 1.098.901 2 2 2 1.098 0 2-.902 2-2 0-1.099-.902-2-2-2zm-9 1c.558 0 1 .441 1 1 0 .558-.442 1-1 1-.559 0-1-.442-1-1 0-.559.441-1 1-1zm9 0c.558 0 1 .441 1 1 0 .558-.442 1-1 1-.559 0-1-.442-1-1 0-.559.441-1 1-1z" color="#000" font-family="sans-serif" font-weight="400" overflow="visible"></path></g></svg>